<?xml version="1.0" encoding="UTF-8"?>
<svg xmlns="http://www.w3.org/2000/svg" viewBox="0 0 30 30" fill="currentColor">
  <!-- Generator: Adobe Illustrator 30.1.0, SVG Export Plug-In . SVG Version: 2.1.1 Build 136)  -->
  <path d="M29,13.3c-6.1-1.7-10.8-6.3-12.4-12.4l-.4-.2h-.3c-.1,0-.2.1-.2.3v12.9c0,.1,0,.2.2.2h13c.2,0,.3,0,.3-.2v-.4c0-.1,0-.2-.2-.2Z" fill="currentColor"/>
  <path d="M28.9,15.7h-12.9l-.2.3v12.9c0,.2,0,.3.2.3h.4l.2-.2c1.7-6.1,6.3-10.8,12.4-12.4l.2-.3v-.3c0-.1-.1-.3-.3-.3Z" fill="currentColor"/>
  <path d="M14,15.7H1.1c-.2,0-.3.2-.3.3v.4c0,.1,0,.2.2.2,6.1,1.5,10.8,6.3,12.4,12.4l.3.2h.3c.1,0,.2-.1.2-.3v-12.9c0-.1,0-.3-.2-.3Z" fill="currentColor"/>
  <path d="M14,.8h-.4c-.1,0-.2,0-.2.2C11.7,7,7,11.8,1,13.3l-.2.3v.3c0,.1.1.2.3.2h12.9c.1,0,.2,0,.2-.2V1.1c0-.2,0-.3-.2-.3Z" fill="currentColor"/>
</svg>