<?xml version="1.0" encoding="UTF-8"?>
<svg xmlns="http://www.w3.org/2000/svg" viewBox="0 0 30 30" fill="currentColor">
  <!-- Generator: Adobe Illustrator 30.1.0, SVG Export Plug-In . SVG Version: 2.1.1 Build 136)  -->
  <path d="M15,.9C7.1.9.6,7.4.6,15.4s4.1,11.8,9.9,13.7c.7.1,1-.4,1-.7v-2.4c-4,.8-4.8-1.9-4.8-1.9-.6-1.7-1.6-2.2-1.6-2.2-1.3-.8,0-.8,0-.8,1.4,0,2.2,1.4,2.2,1.4,1.3,2.2,3.4,1.6,4.2,1.2.1-1,.5-1.6,1-1.9-3.2-.4-7.2-1.6-6.6-7.1s.6-2.9,1.4-3.8c-.1-.4-.6-1.8.1-3.8,0,0,1.2-.4,4,1.4,1.2-.4,2.4-.5,3.6-.5s2.4.1,3.6.5c2.8-1.9,4-1.4,4-1.4.7,2,.2,3.5.1,3.8,1,1,1.4,2.3,1.4,3.8,0,5.5-3.4,6.7-6.6,7.1.5.5,1,1.3,1,2.6v4c0,.5.2.8,1,.7,5.8-1.9,9.9-7.3,9.9-13.7S23,.9,15,.9" fill="currentColor"/>
</svg>