<?xml version="1.0" encoding="UTF-8"?>
<svg xmlns="http://www.w3.org/2000/svg" viewBox="0 0 30 30" fill="currentColor">
  <!-- Generator: Adobe Illustrator 30.1.0, SVG Export Plug-In . SVG Version: 2.1.1 Build 136)  -->
  <path d="M10,3.1c-1.3,0-2.1.3-2.9.6s-1.5.7-2.1,1.4c-.7.7-1.1,1.3-1.4,2.1-.3.8-.5,1.6-.6,2.9v9.8c0,1.3.3,2.1.6,2.9s.7,1.5,1.4,2.1c.7.7,1.3,1.1,2.1,1.4.8.3,1.6.5,2.9.6h9.8c1.3,0,2.1-.3,2.9-.6.8-.3,1.5-.7,2.1-1.4.7-.7,1.1-1.3,1.4-2.1.3-.8.5-1.6.6-2.9v-9.8c0-1.2-.3-2.1-.6-2.9-.3-.8-.7-1.5-1.4-2.1-.7-.7-1.3-1.1-2.1-1.4-.8-.3-1.6-.5-2.9-.6h-9.8M10.2,24.8c-1.2,0-1.8-.2-2.2-.4-.6-.2-1-.5-1.4-.9s-.7-.8-.9-1.4c-.2-.4-.4-1.1-.4-2.2v-9.6c0-1.2.2-1.8.4-2.2.2-.6.5-1,.9-1.4s.8-.7,1.4-.9c.4-.2,1.1-.4,2.2-.4h9.6c1.2,0,1.8.2,2.2.4.6.2,1,.5,1.4.9s.7.8.9,1.4c.2.4.4,1.1.4,2.2v9.6c0,1.2-.2,1.8-.4,2.2-.2.6-.5,1-.9,1.4s-.8.7-1.4.9c-.4.2-1.1.4-2.2.4h-9.6M20,8.6c0,.8.6,1.4,1.4,1.4s1.4-.6,1.4-1.4-.6-1.4-1.4-1.4h0c-.8,0-1.4.6-1.4,1.4M8.8,15c0,3.4,2.8,6.2,6.2,6.1,3.4,0,6.2-2.8,6.2-6.2s-2.8-6.2-6.2-6.1-6.2,2.8-6.1,6.2M11,15c0-2.2,1.8-4,4-4s4,1.8,4,4-1.8,4-4,4-4-1.8-4-4h0" fill="currentColor"/>
</svg>