<?xml version="1.0" encoding="UTF-8"?>
<svg xmlns="http://www.w3.org/2000/svg" viewBox="0 0 30 30" fill="currentColor">
  <!-- Generator: Adobe Illustrator 30.1.0, SVG Export Plug-In . SVG Version: 2.1.1 Build 136)  -->
  <path d="M25.6,2H4.4c-1.3,0-2.4,1-2.4,2.4v21.3c0,1.3,1,2.4,2.4,2.4h21.3c1.3,0,2.4-1,2.4-2.4V4.4c0-1.3-1-2.4-2.4-2.4ZM10,24.4c0,.4-.3.7-.7.7h-2.9c-.4,0-.7-.3-.7-.7v-12.1c0-.4.3-.7.7-.7h2.9c.4,0,.7.3.7.7v12.1ZM7.9,10.4c-1.5,0-2.7-1.2-2.7-2.7s1.2-2.7,2.7-2.7,2.7,1.2,2.7,2.7-1.2,2.7-2.7,2.7ZM25.3,24.5c0,.4-.3.7-.7.7h-3.1c-.4,0-.7-.3-.7-.7v-5.7c0-.8.3-3.8-2.3-3.8s-2.4,2-2.4,2.8v6.6c0,.4-.3.7-.7.7h-3c-.4,0-.7-.3-.7-.7v-12.3c0-.4.3-.7.7-.7h3c.4,0,.7.3.7.7v1c.8-1,1.8-1.9,4-1.9,5,0,5,4.7,5,7.2v5.9h0Z" fill="currentColor"/>
</svg>